<?xml version="1.0" standalone="no"?>
<!DOCTYPE svg PUBLIC "-//W3C//DTD SVG 20010904//EN"
 "http://www.w3.org/TR/2001/REC-SVG-20010904/DTD/svg10.dtd">
<svg version="1.0" xmlns="http://www.w3.org/2000/svg"
 width="700.000000pt" height="700.000000pt" viewBox="0 0 700.000000 700.000000"
 preserveAspectRatio="xMidYMid meet">
<metadata>
Created by potrace 1.11, written by Peter Selinger 2001-2013
</metadata>
<g transform="translate(0.000000,700.000000) scale(0.100000,-0.100000)"
fill="#000000" stroke="none">
<path d="M615 6985 c-205 -31 -378 -130 -477 -273 -42 -61 -85 -159 -111 -255
l-22 -82 -2 -2865 c-2 -2432 0 -2877 12 -2943 55 -303 216 -480 499 -547 79
-19 143 -20 2986 -20 3074 0 2953 -2 3076 43 234 85 375 274 412 550 4 29 7
1335 7 2902 0 2999 2 2890 -42 3030 -39 125 -83 197 -170 282 -94 90 -215 147
-385 180 -18 4 -1309 8 -2868 9 -2195 1 -2853 -1 -2915 -11z"/>
</g>
</svg>
